<svg xmlns="http://www.w3.org/2000/svg" xmlns:xlink="http://www.w3.org/1999/xlink" width="17px" height="14px" viewBox="0 0 27 22" version="1.1">
    <title>Path</title>
    <g id="Homepage" stroke="none" stroke-width="1" fill="none" fill-rule="evenodd">
        <g id="M---Schedule-Landing-Page" transform="translate(-1065.000000, -1791.000000)">
            <g id="Testimonial" transform="translate(333.000000, 1587.000000)">
                <g id="tesimonial" transform="translate(113.000000, 105.000000)">
                    <path d="M350,0 L1555,0 L1555,0 L1555,481 L350,481 C345.581722,481 342,477.418278 342,473 L342,8 C342,3.581722 345.581722,8.11624501e-16 350,0 Z" id="Rectangle" fill="#EBF1F5"/>
                    <g id="quote" transform="translate(619.000000, 99.000000)" fill="#008BCE" fill-rule="nonzero">
                        <path d="M27,22 L27,18.0421394 C24.4285714,17.2814695 23.1428571,15.1539708 23.1428571,11.6596434 L23.1428571,11.6596434 L23.1428571,10.554295 L27,10.554295 L27,0 L16.7142857,0 L16.7142857,7.95137763 C16.7142857,16.6990816 20.1428571,21.3819557 27,22 L27,22 Z M10.2857143,22 L10.2857143,18.0421394 C7.71428571,17.2814695 6.42857143,15.1539708 6.42857143,11.6596434 L6.42857143,11.6596434 L6.42857143,10.554295 L10.2857143,10.554295 L10.2857143,0 L0,0 L0,7.95137763 C0,16.6990816 3.42857143,21.3819557 10.2857143,22 L10.2857143,22 Z" id="‟"/>
                    </g>
                </g>
            </g>
        </g>
    </g>
</svg>